<?xml version="1.0" encoding="iso-8859-1"?>
<!-- Generator: Adobe Illustrator 19.0.0, SVG Export Plug-In . SVG Version: 6.00 Build 0)  -->
<svg version="1.1" id="Capa_1" xmlns="http://www.w3.org/2000/svg" xmlns:xlink="http://www.w3.org/1999/xlink" x="0px" y="0px"
	 viewBox="0 0 512 512" style="enable-background:new 0 0 512 512;" xml:space="preserve">
<path style="fill:#084F6D;" d="M256,266.25v75c24.853,0,45-20.147,45-45L256,266.25z"/>
<path style="fill:#116F97;" d="M271,296.25l-15-30l-45,30c0,24.853,20.147,45,45,45C264.284,341.25,271,321.103,271,296.25z"/>
<path style="fill:#FFCB63;" d="M281,176.25h-30l20,120h30v-100C301,185.204,292.046,176.25,281,176.25z"/>
<path style="fill:#FFE2A8;" d="M251,176.25h-20c-11.046,0-20,8.954-20,20v100h60v-100C271,185.204,262.046,176.25,251,176.25z"/>
<path style="fill:#C27749;" d="M298.429,86.25L256,66.25v80c24.853,0,45-20.147,45-45C301,95.989,300.088,90.943,298.429,86.25z"/>
<path style="fill:#40211D;" d="M256,56.25l14.143,30h28.286C292.251,68.774,275.592,56.25,256,56.25z"/>
<path style="fill:#E18F4E;" d="M270.143,86.25l-42.429-19.99C217.522,74.51,211,87.116,211,101.25c0,24.853,20.147,45,45,45
	c8.284,0,15-20.147,15-45C271,95.989,270.696,90.943,270.143,86.25z"/>
<path style="fill:#60312C;" d="M256,86.25h14.143c-2.06-17.476-7.613-30-14.143-30c-10.719,0-20.557,3.754-28.286,10.01
	C231.831,77.911,242.93,86.25,256,86.25z"/>
<path style="fill:#FFF0D3;" d="M161,176.25h-30l-20,120l70-30v-70C181,185.204,172.046,176.25,161,176.25z"/>
<path style="fill:#FFFFFF;" d="M131,176.25h-20c-11.046,0-20,8.954-20,20v100h60v-100C151,185.204,142.046,176.25,131,176.25z"/>
<polygon style="fill:#FF6337;" points="181,266.25 151,266.25 131,303.75 151,351.56 181,351.56 "/>
<path style="fill:#FF8646;" d="M151,266.25H91c-9.329,10.575-15,24.454-15,39.665v45.645h75V266.25z"/>
<circle style="fill:#FF6337;" cx="86" cy="121.25" r="25"/>
<path style="fill:#FFB4A9;" d="M150.092,85.797L136,146.25c24.853,0,45-20.147,45-45L150.092,85.797z"/>
<path style="fill:#FFD9D4;" d="M151,101.25c0-5.429-0.321-10.634-0.908-15.453l-41.095-20.546C98.07,73.462,91,86.53,91,101.25
	c0,24.853,20.147,45,45,45C144.284,146.25,151,126.103,151,101.25z"/>
<path style="fill:#FF4128;" d="M136,56.25l14.899,39.832c9.413,3.341,19.543,5.168,30.101,5.168C181,76.397,160.853,56.25,136,56.25
	z"/>
<path style="fill:#FF6337;" d="M136,56.25c-10.132,0-19.481,3.35-27.003,9.002c10.532,14.02,25.066,24.856,41.901,30.831
	C150.044,73.665,143.701,56.25,136,56.25z"/>
<path style="fill:#85453D;" d="M376,56.25v101l45-46v-10C421,76.397,400.853,56.25,376,56.25z"/>
<path style="fill:#A45E43;" d="M376,56.25c-24.853,0-45,20.147-45,45v10l60,46v-56C391,76.397,384.284,56.25,376,56.25z"/>
<path style="fill:#FFF1CF;" d="M394.709,111.25c-1.053-1.573-2.303-3.002-3.709-4.261l-15,69.261c24.853,0,45-20.147,45-45v-20
	H394.709z"/>
<path style="fill:#FFFFFF;" d="M391,131.25v-24.261c-3.981-3.566-9.235-5.739-15-5.739c-7.801,0-14.672,3.971-18.709,10H331v20
	c0,24.853,20.147,45,45,45C384.284,176.25,391,156.103,391,131.25z"/>
<path style="fill:#C27749;" d="M376,266.25v75c24.853,0,45-20.147,45-45L376,266.25z"/>
<path style="fill:#E18F4E;" d="M391,296.25l-15-30l-45,30c0,24.853,20.147,45,45,45C384.284,341.25,391,321.103,391,296.25z"/>
<path style="fill:#B9D171;" d="M401,176.25h-30l20,120h30v-100C421,185.204,412.046,176.25,401,176.25z"/>
<path style="fill:#D5E3AA;" d="M371,176.25h-20c-11.046,0-20,8.954-20,20v100h60v-100C391,185.204,382.046,176.25,371,176.25z"/>
<circle style="fill:#B9D171;" cx="52.5" cy="41.25" r="15"/>
<circle style="fill:#FFCB63;" cx="22.5" cy="295.25" r="15"/>
<circle style="fill:#D5E3AA;" cx="489.5" cy="295.25" r="15"/>
<circle style="fill:#FF4128;" cx="314.87" cy="26.25" r="15"/>
<path d="M256,150c28.949,0,52.5-23.552,52.5-52.5S284.949,45,256,45s-52.5,23.552-52.5,52.5S227.051,150,256,150z M285.98,75H256
	c-7.614,0-14.583-3.859-18.693-9.988C242.814,61.831,249.195,60,256,60C268.242,60,279.131,65.898,285.98,75z M226.012,75.011
	C232.972,84.263,244.011,90,256,90h36.745c0.494,2.424,0.755,4.932,0.755,7.5c0,20.678-16.822,37.5-37.5,37.5
	s-37.5-16.822-37.5-37.5C218.5,89.07,221.298,81.281,226.012,75.011z"/>
<path d="M53.5,117.5c0,17.921,14.58,32.5,32.5,32.5c8.103,0,15.803-3.02,21.703-8.314C115.876,146.938,125.584,150,136,150
	c28.949,0,52.5-23.552,52.5-52.5S164.949,45,136,45c-24.65,0-45.375,17.081-50.99,40.025C67.547,85.552,53.5,99.911,53.5,117.5z
	 M68.5,117.5c0-8.822,6.569-16.121,15.068-17.311c0.609,12.005,5.28,22.95,12.649,31.51C93.277,133.814,89.718,135,86,135
	C76.351,135,68.5,127.149,68.5,117.5z M172.651,89.58c-20.154-2-38.58-11.212-52.297-26.147C125.12,61.236,130.417,60,136,60
	C153.96,60,169.005,72.694,172.651,89.58z M108.199,72.362c16.692,18.803,39.576,30.243,64.607,32.298
	C169.454,121.924,154.229,135,136,135c-20.678,0-37.5-16.822-37.5-37.5C98.5,87.837,102.175,79.017,108.199,72.362z"/>
<path d="M489.372,425.098l-74.783-24.927v-72.12c8.629-9.359,13.912-21.848,13.912-35.551v-92.813c46.406-3.825,83-42.81,83-90.187
	v-12c0-4.143-3.358-7.5-7.5-7.5s-7.5,3.357-7.5,7.5v12c0,39.484-30.472,71.964-69.13,75.212c-2.439-8.241-8.64-14.879-16.609-17.916
	c10.869-9.625,17.739-23.67,17.739-39.296v-30c0-28.948-23.551-52.5-52.5-52.5s-52.5,23.552-52.5,52.5v30
	c0,15.626,6.87,29.67,17.739,39.296c-8.061,3.072-14.313,9.83-16.691,18.204h-17.096c-3.274-11.528-13.889-20-26.452-20h-50
	c-12.563,0-23.178,8.472-26.452,20h-17.096c-3.274-11.528-13.889-20-26.452-20h-50c-12.458,0-23.002,8.331-26.37,19.712
	C45.972,181.464,15.5,148.984,15.5,109.5v-12c0-4.143-3.358-7.5-7.5-7.5s-7.5,3.357-7.5,7.5v12c0,47.377,36.594,86.361,83,90.187
	v60.072c-9.693,11.988-15,26.935-15,42.406v45.646c0,4.143,3.358,7.5,7.5,7.5h21.412v44.86l-74.783,24.927
	c-3.063,1.021-5.128,3.887-5.128,7.115v31.623c0,4.143,3.358,7.5,7.5,7.5s7.5-3.357,7.5-7.5v-26.218l74.783-24.927
	c3.063-1.021,5.128-3.887,5.128-7.115V355.31H158.5V494.5c0,3.229,2.066,6.095,5.128,7.115l30,10
	c0.77,0.257,1.571,0.385,2.372,0.385s1.602-0.128,2.372-0.385l30-10c3.063-1.021,5.128-3.887,5.128-7.115V339.924
	c6.824,3.251,14.452,5.076,22.5,5.076s15.676-1.825,22.5-5.076V494.5c0,3.229,2.066,6.095,5.128,7.115l30,10
	c0.77,0.257,1.571,0.385,2.372,0.385s1.602-0.128,2.372-0.385l30-10c3.063-1.021,5.128-3.887,5.128-7.115V339.924
	c6.824,3.251,14.452,5.076,22.5,5.076c8.481,0,16.491-2.034,23.588-5.62v66.196c0,3.229,2.066,6.095,5.128,7.115l74.783,24.927
	v26.218c0,4.143,3.358,7.5,7.5,7.5s7.5-3.357,7.5-7.5v-31.623C494.5,428.984,492.434,426.118,489.372,425.098z M376,60
	c20.678,0,37.5,16.822,37.5,37.5v2.5h-15.139c-5.652-6.325-13.746-10-22.361-10s-16.708,3.675-22.361,10H338.5v-2.5
	C338.5,76.822,355.322,60,376,60z M338.5,127.5V115h18.792c2.502,0,4.84-1.248,6.232-3.328C366.321,107.494,370.985,105,376,105
	s9.679,2.494,12.476,6.672c1.392,2.08,3.73,3.328,6.232,3.328H413.5v12.5c0,20.678-16.822,37.5-37.5,37.5S338.5,148.178,338.5,127.5
	z M351,180h17.5v82.5c0,4.143,3.358,7.5,7.5,7.5s7.5-3.357,7.5-7.5V180H401c6.893,0,12.5,5.607,12.5,12.5V285h-75v-92.5
	C338.5,185.607,344.107,180,351,180z M231,180h50c6.893,0,12.5,5.607,12.5,12.5V285h-75v-92.5C218.5,185.607,224.107,180,231,180z
	 M111,180h50c6.893,0,12.5,5.607,12.5,12.5V255h-75v-62.5C98.5,185.607,104.107,180,111,180z M83.5,302.165
	c0-11.687,3.905-22.982,11.039-32.165H173.5v70.311h-7.481c-0.039,0-82.519,0-82.519,0V302.165z M196,496.595l-22.5-7.5V355.311h7.5
	c4.142,0,7.5-3.357,7.5-7.5V200h15v92.5c0,14.269,5.73,27.22,15,36.692v159.903L196,496.595z M219.255,300h73.491
	c-3.484,17.096-18.635,30-36.745,30S222.739,317.096,219.255,300z M316,496.595l-22.5-7.5V329.192c9.27-9.472,15-22.423,15-36.692
	V200h15v92.5c0,14.269,5.73,27.22,15,36.692v159.903L316,496.595z M339.255,300h73.491c-3.484,17.096-18.635,30-36.745,30
	S342.739,317.096,339.255,300z"/>
<path d="M52.5,60C64.907,60,75,49.906,75,37.5S64.907,15,52.5,15S30,25.094,30,37.5S40.093,60,52.5,60z M52.5,30
	c4.136,0,7.5,3.364,7.5,7.5S56.636,45,52.5,45S45,41.636,45,37.5S48.364,30,52.5,30z"/>
<circle cx="109.81" cy="7.5" r="7.5"/>
<circle cx="196" cy="36.5" r="7.5"/>
<circle cx="402.19" cy="22.5" r="7.5"/>
<circle cx="22.5" cy="217.5" r="7.5"/>
<path d="M45,291.5c0-12.406-10.093-22.5-22.5-22.5S0,279.094,0,291.5S10.093,314,22.5,314S45,303.906,45,291.5z M15,291.5
	c0-4.136,3.364-7.5,7.5-7.5s7.5,3.364,7.5,7.5s-3.364,7.5-7.5,7.5S15,295.636,15,291.5z"/>
<path d="M489.5,269c-12.407,0-22.5,10.094-22.5,22.5s10.093,22.5,22.5,22.5s22.5-10.094,22.5-22.5S501.907,269,489.5,269z
	 M489.5,299c-4.136,0-7.5-3.364-7.5-7.5s3.364-7.5,7.5-7.5s7.5,3.364,7.5,7.5S493.636,299,489.5,299z"/>
<path d="M314.871,45c12.407,0,22.5-10.094,22.5-22.5S327.278,0,314.871,0s-22.5,10.094-22.5,22.5S302.464,45,314.871,45z
	 M314.871,15c4.136,0,7.5,3.364,7.5,7.5s-3.364,7.5-7.5,7.5s-7.5-3.364-7.5-7.5S310.735,15,314.871,15z"/>
<circle cx="444.5" cy="52.5" r="7.5"/>
<circle cx="489.5" cy="217.5" r="7.5"/>
<circle cx="459.5" cy="247.5" r="7.5"/>
<g>
</g>
<g>
</g>
<g>
</g>
<g>
</g>
<g>
</g>
<g>
</g>
<g>
</g>
<g>
</g>
<g>
</g>
<g>
</g>
<g>
</g>
<g>
</g>
<g>
</g>
<g>
</g>
<g>
</g>
</svg>
